# Blender v2.83.8 OBJ File: 'telephone.blend'
# www.blender.org
mtllib telephone.mtl
o Cube_Cube.001
v -0.910151 0.421278 0.777778
v -0.910151 0.421278 0.236111
v 0.837622 -0.002661 0.777778
v 0.837622 -0.002661 0.236111
v -0.784048 0.043443 0.236111
v -0.784048 0.043443 0.777778
v 0.609469 -0.288946 0.777778
v 0.609469 -0.288946 0.236111
v -0.945754 0.410417 0.937736
v -1.000000 0.395909 1.000000
v -0.962517 0.413072 0.956977
v -0.977639 0.412780 0.974334
v -0.989640 0.409571 0.988109
v -0.997345 0.403758 0.996953
v -0.945754 0.410417 -0.937736
v -1.000000 0.395909 -1.000000
v -0.962517 0.413072 -0.956977
v -0.977639 0.412780 -0.974334
v -0.989640 0.409571 -0.988109
v -0.997345 0.403758 -0.996953
v 0.945754 -0.040756 0.937736
v 1.000000 -0.081142 1.000000
v 0.962517 -0.046098 0.956977
v 0.977639 -0.053603 0.974334
v 0.989640 -0.062538 0.988109
v 0.997345 -0.072027 0.996952
v 0.945754 -0.040756 -0.937736
v 1.000000 -0.081142 -1.000000
v 0.962517 -0.046098 -0.956977
v 0.977639 -0.053603 -0.974334
v 0.989640 -0.062538 -0.988109
v 0.997345 -0.072027 -0.996952
v -0.937829 0.421918 0.777778
v -1.000000 0.395951 0.777778
v -0.957041 0.421021 0.777778
v -0.974372 0.417530 0.777778
v -0.988126 0.411785 0.777778
v -0.996957 0.404349 0.777778
v 1.000000 -0.081100 0.777778
v 0.950007 -0.037983 0.777778
v 0.997553 -0.071862 0.777778
v 0.990452 -0.061991 0.777778
v 0.979392 -0.052452 0.777778
v 0.965455 -0.044179 0.777778
v -1.000000 0.395951 0.236111
v -0.937829 0.421918 0.236111
v -0.996957 0.404349 0.236111
v -0.988126 0.411785 0.236111
v -0.974372 0.417530 0.236111
v -0.957041 0.421021 0.236111
v 1.000000 -0.081100 0.236111
v 0.950007 -0.037983 0.236111
v 0.997553 -0.071862 0.236111
v 0.990452 -0.061991 0.236111
v 0.979392 -0.052452 0.236111
v 0.965455 -0.044179 0.236111
v -0.933874 -0.423821 0.933865
v -1.000000 -0.395356 1.000000
v -0.950989 -0.422747 0.950982
v -0.966937 -0.419837 0.966933
v -0.980632 -0.415291 0.980630
v -0.991141 -0.409418 0.991140
v -0.997747 -0.402618 0.997747
v -1.000000 -0.395356 -1.000000
v -0.933874 -0.423821 -0.933865
v -0.997747 -0.402618 -0.997747
v -0.991141 -0.409418 -0.991140
v -0.980632 -0.415291 -0.980630
v -0.966937 -0.419837 -0.966933
v -0.950989 -0.422747 -0.950982
v 1.000000 -0.409427 1.000000
v 0.933874 -0.436962 0.933865
v 0.997747 -0.416658 0.997746
v 0.991141 -0.423365 0.991140
v 0.980632 -0.429090 0.980629
v 0.966937 -0.433443 0.966933
v 0.950989 -0.436128 0.950982
v 0.933874 -0.436962 -0.933865
v 1.000000 -0.409427 -1.000000
v 0.950989 -0.436128 -0.950982
v 0.966937 -0.433443 -0.966933
v 0.980632 -0.429090 -0.980629
v 0.991141 -0.423365 -0.991140
v 0.997747 -0.416658 -0.997746
vt 0.838742 0.654514
vt 0.849911 0.654514
vt 0.849911 0.722222
vt 0.838742 0.722222
vt 0.631837 0.507782
vt 0.868047 0.507782
vt 0.664552 0.654514
vt 0.637177 0.654514
vt 0.616896 0.250000
vt 0.607119 0.500000
vt 0.393242 0.500000
vt 0.383267 0.250000
vt 0.664552 0.722222
vt 0.637177 0.722222
vt 0.865470 0.742291
vt 0.633047 0.742252
vt 0.607146 0.654514
vt 0.607146 0.722222
vt 0.607119 0.750000
vt 0.393242 0.750000
vt 0.616896 1.000000
vt 0.383267 1.000000
vt 0.838742 0.654514
vt 0.664552 0.654514
vt 0.838742 0.722222
vt 0.664552 0.722222
vt 0.870028 0.505368
vt 0.856981 0.654503
vt 0.871470 0.503174
vt 0.861990 0.654472
vt 0.875000 0.501486
vt 0.875000 0.654514
vt 0.621583 0.095486
vt 0.620930 0.248514
vt 0.619213 0.249619
vt 0.619388 0.095486
vt 0.616908 0.095486
vt 0.630224 0.744690
vt 0.633067 0.722244
vt 0.627437 0.746985
vt 0.628669 0.722307
vt 0.619239 0.748514
vt 0.619595 0.722222
vt 0.613057 0.749619
vt 0.613164 0.722222
vt 0.857065 0.722280
vt 0.868534 0.744713
vt 0.862297 0.722449
vt 0.870666 0.747000
vt 0.875000 0.722222
vt 0.875000 0.748514
vt 0.620930 0.001486
vt 0.621584 0.027778
vt 0.619388 0.027778
vt 0.619213 0.000381
vt 0.616908 0.027778
vt 0.616896 0.000000
vt 0.633075 0.654510
vt 0.628695 0.654499
vt 0.619595 0.654514
vt 0.613164 0.654514
vt 0.857594 0.654514
vt 0.857594 0.722222
vt 0.864386 0.654514
vt 0.864386 0.722222
vt 0.629552 0.505369
vt 0.627151 0.503175
vt 0.619239 0.501486
vt 0.613057 0.500381
vt 0.625000 0.500000
vt 0.872276 0.500000
vt 0.621557 0.251295
vt 0.618352 0.498705
vt 0.612856 0.499668
vt 0.619366 0.250332
vt 0.872276 0.750000
vt 0.625000 0.750000
vt 0.618352 0.751295
vt 0.621557 0.998705
vt 0.619366 0.999668
vt 0.612856 0.750332
vt 0.366734 0.741733
vt 0.133266 0.741733
vt 0.133266 0.508267
vt 0.366734 0.508267
vt 0.368869 0.506127
vt 0.368869 0.743873
vt 0.370849 0.504133
vt 0.370849 0.745867
vt 0.375000 0.502421
vt 0.375000 0.747579
vt 0.384162 0.501108
vt 0.384162 0.748892
vt 0.388531 0.500282
vt 0.388531 0.749718
vt 0.131122 0.743873
vt 0.131122 0.506127
vt 0.129114 0.745867
vt 0.129114 0.504133
vt 0.125000 0.747579
vt 0.125000 0.502421
vt 0.375000 0.247579
vt 0.375000 0.002421
vt 0.379115 0.001108
vt 0.379115 0.248892
vt 0.381123 0.000282
vt 0.381123 0.249718
vt 0.383267 0.000000
vt 0.372539 0.750000
vt 0.127381 0.750000
vt 0.375000 0.997619
vt 0.375000 0.752461
vt 0.383785 0.751107
vt 0.379337 0.998893
vt 0.388424 0.750282
vt 0.381186 0.999718
vt 0.127381 0.500000
vt 0.372539 0.500000
vt 0.375000 0.497539
vt 0.375000 0.252381
vt 0.379337 0.251107
vt 0.383785 0.498893
vt 0.381186 0.250282
vt 0.388424 0.499718
vn 0.0231 0.9997 0.0000
vn 0.2343 0.9721 -0.0127
vn 0.0000 0.0000 -1.0000
vn 0.2998 0.9540 0.0000
vn 0.2333 0.9679 0.0931
vn 1.0000 0.0000 0.0000
vn 0.0000 0.0000 1.0000
vn 0.2320 0.9727 0.0000
vn -0.7820 0.6232 0.0000
vn 0.9486 0.3166 0.0000
vn 0.0533 0.9985 -0.0085
vn -0.1132 0.9936 -0.0048
vn -0.3274 0.9449 -0.0021
vn -0.6251 0.7805 -0.0004
vn -0.9436 0.3309 0.0001
vn 0.3265 0.9450 0.0200
vn 0.4711 0.8820 0.0131
vn 0.6226 0.7825 0.0072
vn 0.7937 0.6083 0.0029
vn 0.9634 0.2679 0.0006
vn 0.0808 0.9949 0.0603
vn -0.0992 0.9946 0.0313
vn -0.3224 0.9465 0.0124
vn -0.6245 0.7810 0.0023
vn -0.9437 0.3309 -0.0004
vn 0.3723 0.9281 0.0000
vn 0.5104 0.8599 0.0000
vn 0.6531 0.7573 0.0000
vn 0.8118 0.5840 0.0000
vn 0.9667 0.2560 0.0000
vn -0.0466 0.9989 0.0000
vn -0.1975 0.9803 0.0000
vn -0.3854 0.9227 0.0000
vn -0.6441 0.7649 0.0000
vn -0.9402 0.3407 0.0000
vn 0.3357 0.9420 -0.0029
vn 0.4762 0.8793 -0.0021
vn 0.6248 0.7808 -0.0012
vn 0.7942 0.6076 -0.0005
vn 0.9635 0.2679 -0.0001
vn 0.2315 0.9705 -0.0678
vn 0.2267 0.9503 -0.2134
vn 0.2132 0.8940 -0.3941
vn 0.1775 0.7442 -0.6439
vn 0.0804 0.3371 -0.9380
vn 0.2315 0.9705 0.0678
vn 0.2267 0.9503 0.2134
vn 0.2132 0.8940 0.3941
vn 0.1775 0.7442 0.6439
vn 0.0804 0.3371 0.9380
vn -0.0070 -1.0000 0.0000
vn 0.0487 -0.9988 0.0000
vn 0.1660 -0.9861 0.0000
vn 0.3029 -0.9530 0.0000
vn 0.4784 -0.8781 0.0000
vn 0.7124 -0.7017 0.0000
vn 0.9547 -0.2975 0.0000
vn -0.0627 -0.9980 0.0000
vn -0.1795 -0.9838 0.0000
vn -0.3151 -0.9491 0.0000
vn -0.4879 -0.8729 -0.0000
vn -0.7172 -0.6968 0.0000
vn -0.9551 -0.2963 0.0000
vn -0.0070 -0.9984 0.0557
vn -0.0069 -0.9849 0.1727
vn -0.0067 -0.9510 0.3090
vn -0.0062 -0.8755 0.4831
vn -0.0049 -0.6993 0.7148
vn -0.0021 -0.2969 0.9549
vn -0.0070 -0.9984 -0.0557
vn -0.0069 -0.9849 -0.1727
vn -0.0067 -0.9510 -0.3090
vn -0.0062 -0.8755 -0.4831
vn -0.0049 -0.6993 -0.7148
vn -0.0021 -0.2969 -0.9549
vn -1.0000 0.0000 0.0000
usemtl None
s off
f 2/1/1 46/2/1 33/3/1 1/4/1
f 27/5/2 15/6/2 46/2/2 2/1/2 4/7/2 52/8/2
f 16/9/3 28/10/3 79/11/3 64/12/3
f 52/8/4 4/7/4 3/13/4 40/14/4
f 3/13/5 1/4/5 33/3/5 9/15/5 21/16/5 40/14/5
f 51/17/6 39/18/6 22/19/6 71/20/6 79/11/6 28/10/6
f 10/21/7 58/22/7 71/20/7 22/19/7
f 4/7/7 2/1/7 5/23/7 8/24/7
f 8/24/8 5/23/8 6/25/8 7/26/8
f 3/13/9 4/7/9 8/24/9 7/26/9
f 2/1/10 1/4/10 6/25/10 5/23/10
f 1/4/3 3/13/3 7/26/3 6/25/3
f 46/2/11 15/6/11 17/27/11 50/28/11
f 50/28/12 17/27/12 18/29/12 49/30/12
f 49/30/13 18/29/13 19/31/13 48/32/13
f 48/33/14 19/34/14 20/35/14 47/36/14
f 47/36/15 20/35/15 16/9/15 45/37/15
f 40/14/16 21/16/16 23/38/16 44/39/16
f 44/39/17 23/38/17 24/40/17 43/41/17
f 43/41/18 24/40/18 25/42/18 42/43/18
f 42/43/19 25/42/19 26/44/19 41/45/19
f 41/45/20 26/44/20 22/19/20 39/18/20
f 9/15/21 33/3/21 35/46/21 11/47/21
f 11/47/22 35/46/22 36/48/22 12/49/22
f 12/49/23 36/48/23 37/50/23 13/51/23
f 13/52/24 37/53/24 38/54/24 14/55/24
f 14/55/25 38/54/25 34/56/25 10/57/25
f 52/8/26 40/14/26 44/39/26 56/58/26
f 56/58/27 44/39/27 43/41/27 55/59/27
f 55/59/28 43/41/28 42/43/28 54/60/28
f 54/60/29 42/43/29 41/45/29 53/61/29
f 53/61/30 41/45/30 39/18/30 51/17/30
f 33/3/31 46/2/31 50/62/31 35/63/31
f 35/63/32 50/62/32 49/64/32 36/65/32
f 36/65/33 49/64/33 48/32/33 37/50/33
f 37/53/34 48/33/34 47/36/34 38/54/34
f 38/54/35 47/36/35 45/37/35 34/56/35
f 27/5/36 52/8/36 56/58/36 29/66/36
f 29/66/37 56/58/37 55/59/37 30/67/37
f 30/67/38 55/59/38 54/60/38 31/68/38
f 31/68/39 54/60/39 53/61/39 32/69/39
f 32/69/40 53/61/40 51/17/40 28/10/40
f 15/6/41 27/5/41 29/66/41 17/27/41
f 17/27/42 29/66/42 30/67/42 18/29/42
f 18/29/43 30/67/43 31/70/43 19/71/43
f 19/72/44 31/73/44 32/74/44 20/75/44
f 20/75/45 32/74/45 28/10/45 16/9/45
f 21/16/46 9/15/46 11/47/46 23/38/46
f 23/38/47 11/47/47 12/49/47 24/40/47
f 24/40/48 12/49/48 13/76/48 25/77/48
f 25/78/49 13/79/49 14/80/49 26/81/49
f 26/81/50 14/80/50 10/21/50 22/19/50
f 72/82/51 57/83/51 65/84/51 78/85/51
f 72/82/52 78/85/52 80/86/52 77/87/52
f 77/87/53 80/86/53 81/88/53 76/89/53
f 76/89/54 81/88/54 82/90/54 75/91/54
f 75/91/55 82/90/55 83/92/55 74/93/55
f 74/93/56 83/92/56 84/94/56 73/95/56
f 73/95/57 84/94/57 79/11/57 71/20/57
f 65/84/58 57/83/58 59/96/58 70/97/58
f 70/97/59 59/96/59 60/98/59 69/99/59
f 69/99/60 60/98/60 61/100/60 68/101/60
f 68/102/61 61/103/61 62/104/61 67/105/61
f 67/105/62 62/104/62 63/106/62 66/107/62
f 66/107/63 63/106/63 58/108/63 64/12/63
f 57/83/64 72/82/64 77/87/64 59/96/64
f 59/96/65 77/87/65 76/89/65 60/98/65
f 60/98/66 76/89/66 75/109/66 61/110/66
f 61/111/67 75/112/67 74/113/67 62/114/67
f 62/114/68 74/113/68 73/115/68 63/116/68
f 63/116/69 73/115/69 71/20/69 58/22/69
f 78/85/70 65/84/70 70/97/70 80/86/70
f 80/86/71 70/97/71 69/99/71 81/88/71
f 81/88/72 69/99/72 68/117/72 82/118/72
f 82/119/73 68/120/73 67/121/73 83/122/73
f 83/122/74 67/121/74 66/123/74 84/124/74
f 84/124/75 66/123/75 64/12/75 79/11/75
f 34/56/76 45/37/76 16/9/76 64/12/76 58/108/76 10/57/76
o Cube.002_Cube.003
v -0.680426 0.356457 -0.012583
v -0.667456 0.411239 -0.012583
v -0.680426 0.356457 -0.183894
v -0.667456 0.411239 -0.183894
v -0.513723 0.316988 -0.012583
v -0.500753 0.371770 -0.012583
v -0.513723 0.316988 -0.183894
v -0.500753 0.371770 -0.183894
vt 0.375000 0.000000
vt 0.625000 0.000000
vt 0.625000 0.250000
vt 0.375000 0.250000
vt 0.625000 0.500000
vt 0.375000 0.500000
vt 0.625000 0.750000
vt 0.375000 0.750000
vt 0.625000 1.000000
vt 0.375000 1.000000
vt 0.125000 0.500000
vt 0.125000 0.750000
vt 0.875000 0.500000
vt 0.875000 0.750000
vn -0.9731 0.2304 0.0000
vn 0.0000 0.0000 -1.0000
vn 0.9731 -0.2304 0.0000
vn 0.0000 0.0000 1.0000
vn -0.2304 -0.9731 0.0000
vn 0.2304 0.9731 0.0000
usemtl None
s off
f 85/125/77 86/126/77 88/127/77 87/128/77
f 87/128/78 88/127/78 92/129/78 91/130/78
f 91/130/79 92/129/79 90/131/79 89/132/79
f 89/132/80 90/131/80 86/133/80 85/134/80
f 87/135/81 91/130/81 89/132/81 85/136/81
f 92/129/82 88/137/82 86/138/82 90/131/82
o Cube.003_Cube.004
v -0.680426 0.356457 -0.251779
v -0.667456 0.411239 -0.251779
v -0.680426 0.356457 -0.423091
v -0.667456 0.411239 -0.423091
v -0.513723 0.316988 -0.251779
v -0.500753 0.371770 -0.251779
v -0.513723 0.316988 -0.423091
v -0.500753 0.371770 -0.423091
vt 0.375000 0.000000
vt 0.625000 0.000000
vt 0.625000 0.250000
vt 0.375000 0.250000
vt 0.625000 0.500000
vt 0.375000 0.500000
vt 0.625000 0.750000
vt 0.375000 0.750000
vt 0.625000 1.000000
vt 0.375000 1.000000
vt 0.125000 0.500000
vt 0.125000 0.750000
vt 0.875000 0.500000
vt 0.875000 0.750000
vn -0.9731 0.2304 0.0000
vn 0.0000 0.0000 -1.0000
vn 0.9731 -0.2304 0.0000
vn 0.0000 0.0000 1.0000
vn -0.2304 -0.9731 0.0000
vn 0.2304 0.9731 0.0000
usemtl None
s off
f 93/139/83 94/140/83 96/141/83 95/142/83
f 95/142/84 96/141/84 100/143/84 99/144/84
f 99/144/85 100/143/85 98/145/85 97/146/85
f 97/146/86 98/145/86 94/147/86 93/148/86
f 95/149/87 99/144/87 97/146/87 93/150/87
f 100/143/88 96/151/88 94/152/88 98/145/88
o Cube.004_Cube.005
v -0.680426 0.356457 -0.487389
v -0.667456 0.411239 -0.487389
v -0.680426 0.356457 -0.658700
v -0.667456 0.411239 -0.658700
v -0.513723 0.316988 -0.487389
v -0.500753 0.371770 -0.487389
v -0.513723 0.316988 -0.658700
v -0.500753 0.371770 -0.658700
vt 0.375000 0.000000
vt 0.625000 0.000000
vt 0.625000 0.250000
vt 0.375000 0.250000
vt 0.625000 0.500000
vt 0.375000 0.500000
vt 0.625000 0.750000
vt 0.375000 0.750000
vt 0.625000 1.000000
vt 0.375000 1.000000
vt 0.125000 0.500000
vt 0.125000 0.750000
vt 0.875000 0.500000
vt 0.875000 0.750000
vn -0.9731 0.2304 0.0000
vn 0.0000 0.0000 -1.0000
vn 0.9731 -0.2304 0.0000
vn 0.0000 0.0000 1.0000
vn -0.2304 -0.9731 0.0000
vn 0.2304 0.9731 0.0000
usemtl None
s off
f 101/153/89 102/154/89 104/155/89 103/156/89
f 103/156/90 104/155/90 108/157/90 107/158/90
f 107/158/91 108/157/91 106/159/91 105/160/91
f 105/160/92 106/159/92 102/161/92 101/162/92
f 103/163/93 107/158/93 105/160/93 101/164/93
f 108/157/94 104/165/94 102/166/94 106/159/94
o Cube.007_Cube.008
v -0.414459 0.286551 -0.012583
v -0.401488 0.341333 -0.012583
v -0.414459 0.286551 -0.183894
v -0.401488 0.341333 -0.183894
v -0.247755 0.247082 -0.012583
v -0.234785 0.301864 -0.012583
v -0.247755 0.247082 -0.183894
v -0.234785 0.301864 -0.183894
vt 0.375000 0.000000
vt 0.625000 0.000000
vt 0.625000 0.250000
vt 0.375000 0.250000
vt 0.625000 0.500000
vt 0.375000 0.500000
vt 0.625000 0.750000
vt 0.375000 0.750000
vt 0.625000 1.000000
vt 0.375000 1.000000
vt 0.125000 0.500000
vt 0.125000 0.750000
vt 0.875000 0.500000
vt 0.875000 0.750000
vn -0.9731 0.2304 0.0000
vn -0.0000 0.0000 -1.0000
vn 0.9731 -0.2304 0.0000
vn 0.0000 0.0000 1.0000
vn -0.2304 -0.9731 0.0000
vn 0.2304 0.9731 0.0000
usemtl None
s off
f 109/167/95 110/168/95 112/169/95 111/170/95
f 111/170/96 112/169/96 116/171/96 115/172/96
f 115/172/97 116/171/97 114/173/97 113/174/97
f 113/174/98 114/173/98 110/175/98 109/176/98
f 111/177/99 115/172/99 113/174/99 109/178/99
f 116/171/100 112/179/100 110/180/100 114/173/100
o Cube.006_Cube.007
v -0.414459 0.286551 -0.251779
v -0.401488 0.341333 -0.251779
v -0.414459 0.286551 -0.423091
v -0.401488 0.341333 -0.423091
v -0.247755 0.247082 -0.251779
v -0.234785 0.301864 -0.251779
v -0.247755 0.247082 -0.423091
v -0.234785 0.301864 -0.423091
vt 0.375000 0.000000
vt 0.625000 0.000000
vt 0.625000 0.250000
vt 0.375000 0.250000
vt 0.625000 0.500000
vt 0.375000 0.500000
vt 0.625000 0.750000
vt 0.375000 0.750000
vt 0.625000 1.000000
vt 0.375000 1.000000
vt 0.125000 0.500000
vt 0.125000 0.750000
vt 0.875000 0.500000
vt 0.875000 0.750000
vn -0.9731 0.2304 0.0000
vn 0.0000 0.0000 -1.0000
vn 0.9731 -0.2304 0.0000
vn 0.0000 0.0000 1.0000
vn -0.2304 -0.9731 0.0000
vn 0.2304 0.9731 0.0000
usemtl None
s off
f 117/181/101 118/182/101 120/183/101 119/184/101
f 119/184/102 120/183/102 124/185/102 123/186/102
f 123/186/103 124/185/103 122/187/103 121/188/103
f 121/188/104 122/187/104 118/189/104 117/190/104
f 119/191/105 123/186/105 121/188/105 117/192/105
f 124/185/106 120/193/106 118/194/106 122/187/106
o Cube.005_Cube.006
v -0.414459 0.286551 -0.487389
v -0.401488 0.341333 -0.487389
v -0.414459 0.286551 -0.658700
v -0.401488 0.341333 -0.658700
v -0.247755 0.247082 -0.487389
v -0.234785 0.301864 -0.487389
v -0.247755 0.247082 -0.658700
v -0.234785 0.301864 -0.658700
vt 0.375000 0.000000
vt 0.625000 0.000000
vt 0.625000 0.250000
vt 0.375000 0.250000
vt 0.625000 0.500000
vt 0.375000 0.500000
vt 0.625000 0.750000
vt 0.375000 0.750000
vt 0.625000 1.000000
vt 0.375000 1.000000
vt 0.125000 0.500000
vt 0.125000 0.750000
vt 0.875000 0.500000
vt 0.875000 0.750000
vn -0.9731 0.2304 0.0000
vn 0.0000 0.0000 -1.0000
vn 0.9731 -0.2304 0.0000
vn 0.0000 0.0000 1.0000
vn -0.2304 -0.9731 0.0000
vn 0.2304 0.9731 0.0000
usemtl None
s off
f 125/195/107 126/196/107 128/197/107 127/198/107
f 127/198/108 128/197/108 132/199/108 131/200/108
f 131/200/109 132/199/109 130/201/109 129/202/109
f 129/202/110 130/201/110 126/203/110 125/204/110
f 127/205/111 131/200/111 129/202/111 125/206/111
f 132/199/112 128/207/112 126/208/112 130/201/112
o Cube.010_Cube.011
v -0.146304 0.218165 -0.487389
v -0.133334 0.272947 -0.487389
v -0.146304 0.218165 -0.658700
v -0.133334 0.272947 -0.658700
v 0.020399 0.178696 -0.487389
v 0.033369 0.233478 -0.487389
v 0.020399 0.178696 -0.658700
v 0.033369 0.233478 -0.658700
vt 0.375000 0.000000
vt 0.625000 0.000000
vt 0.625000 0.250000
vt 0.375000 0.250000
vt 0.625000 0.500000
vt 0.375000 0.500000
vt 0.625000 0.750000
vt 0.375000 0.750000
vt 0.625000 1.000000
vt 0.375000 1.000000
vt 0.125000 0.500000
vt 0.125000 0.750000
vt 0.875000 0.500000
vt 0.875000 0.750000
vn -0.9731 0.2304 0.0000
vn 0.0000 0.0000 -1.0000
vn 0.9731 -0.2304 0.0000
vn 0.0000 0.0000 1.0000
vn -0.2304 -0.9731 0.0000
vn 0.2304 0.9731 0.0000
usemtl None
s off
f 133/209/113 134/210/113 136/211/113 135/212/113
f 135/212/114 136/211/114 140/213/114 139/214/114
f 139/214/115 140/213/115 138/215/115 137/216/115
f 137/216/116 138/215/116 134/217/116 133/218/116
f 135/219/117 139/214/117 137/216/117 133/220/117
f 140/213/118 136/221/118 134/222/118 138/215/118
o Cube.009_Cube.010
v -0.146304 0.218165 -0.251779
v -0.133334 0.272947 -0.251779
v -0.146304 0.218165 -0.423091
v -0.133334 0.272947 -0.423091
v 0.020399 0.178696 -0.251779
v 0.033369 0.233478 -0.251779
v 0.020399 0.178696 -0.423091
v 0.033369 0.233478 -0.423091
vt 0.375000 0.000000
vt 0.625000 0.000000
vt 0.625000 0.250000
vt 0.375000 0.250000
vt 0.625000 0.500000
vt 0.375000 0.500000
vt 0.625000 0.750000
vt 0.375000 0.750000
vt 0.625000 1.000000
vt 0.375000 1.000000
vt 0.125000 0.500000
vt 0.125000 0.750000
vt 0.875000 0.500000
vt 0.875000 0.750000
vn -0.9731 0.2304 0.0000
vn 0.0000 0.0000 -1.0000
vn 0.9731 -0.2304 0.0000
vn 0.0000 0.0000 1.0000
vn -0.2304 -0.9731 0.0000
vn 0.2304 0.9731 0.0000
usemtl None
s off
f 141/223/119 142/224/119 144/225/119 143/226/119
f 143/226/120 144/225/120 148/227/120 147/228/120
f 147/228/121 148/227/121 146/229/121 145/230/121
f 145/230/122 146/229/122 142/231/122 141/232/122
f 143/233/123 147/228/123 145/230/123 141/234/123
f 148/227/124 144/235/124 142/236/124 146/229/124
o Cube.008_Cube.009
v -0.146304 0.218165 -0.012583
v -0.133334 0.272947 -0.012583
v -0.146304 0.218165 -0.183894
v -0.133334 0.272947 -0.183894
v 0.020399 0.178696 -0.012583
v 0.033369 0.233478 -0.012583
v 0.020399 0.178696 -0.183894
v 0.033369 0.233478 -0.183894
vt 0.375000 0.000000
vt 0.625000 0.000000
vt 0.625000 0.250000
vt 0.375000 0.250000
vt 0.625000 0.500000
vt 0.375000 0.500000
vt 0.625000 0.750000
vt 0.375000 0.750000
vt 0.625000 1.000000
vt 0.375000 1.000000
vt 0.125000 0.500000
vt 0.125000 0.750000
vt 0.875000 0.500000
vt 0.875000 0.750000
vn -0.9731 0.2304 0.0000
vn 0.0000 0.0000 -1.0000
vn 0.9731 -0.2304 0.0000
vn 0.0000 0.0000 1.0000
vn -0.2304 -0.9731 0.0000
vn 0.2304 0.9731 0.0000
usemtl None
s off
f 149/237/125 150/238/125 152/239/125 151/240/125
f 151/240/126 152/239/126 156/241/126 155/242/126
f 155/242/127 156/241/127 154/243/127 153/244/127
f 153/244/128 154/243/128 150/245/128 149/246/128
f 151/247/129 155/242/129 153/244/129 149/248/129
f 156/241/130 152/249/130 150/250/130 154/243/130
